<svg xmlns="http://www.w3.org/2000/svg" viewBox="0 0 2061.77 2129.78"><defs><style>.cls-1{fill:#e2b237;}.cls-2{fill:#d38728;}.cls-3{fill:#ae4924;}</style></defs><title>Ресурс 1</title><g id="Слой_2" data-name="Слой 2"><g id="图层_1" data-name="图层 1"><path class="cls-1" d="M1044,676.48c-18.49-9.07-8-133.75,7.16-161.89,24.09-44.76,99.54-91,107.35-115.71S1200,94.21,1200,94.21s-8.41,217.51-11.81,321.41c-2.38,72.83-8.92,125.92-18.48,156.1C1158.36,607.6,1075,691.67,1044,676.48Z"/><path class="cls-1" d="M1042,911.51c-17.7-10.51-7.54-131.23,9.81-158.07,27.58-42.69,106.49-82.72,116.26-106.77s86.78-322,86.78-322S1208,562.44,1196.33,665.73c-8.21,72.41-13.07,125.76-25,155.1C1157.1,855.7,1071.7,929.14,1042,911.51Z"/><path class="cls-1" d="M1047.45,1115.13c-13.07-10.55-10.84-133,12.78-156.9,29.13-29.5,95.67-54.26,106.38-72.52s77.61-174.88,77.61-174.88-35.46,111.55-57,193.58c-15.12,57.5-25.32,100-38.41,122.26C1133.21,1053.14,1069.32,1132.84,1047.45,1115.13Z"/><path class="cls-1" d="M1011.85,590.55c18.61-8.85,15.23-120.11.41-148.44-23.54-45-79.55-84-92.93-119.43C905.25,285.4,875.87,92.3,875.87,92.3s4.78,126.24,7,230.17c1.53,72.85,1.66,117,10.87,147.28C904.65,505.78,980.69,605.38,1011.85,590.55Z"/><path class="cls-1" d="M1011.19,807.57c17.83-10.31,9.09-131.13-7.95-158.17-27.08-43-105.5-84-115-108.12s-67.06-258.7-67.06-258.7S843,465.57,853.44,569c7.34,72.5,17.92,116.91,29.52,146.37C896.76,750.39,981.3,824.85,1011.19,807.57Z"/><path class="cls-1" d="M1013.8,1007.52c15.57-11-2.63-121.62-20.6-145.11-28.57-37.37-104.29-68.52-115.07-90S803.21,568.7,803.21,568.7,835.1,697.61,853.45,792c12.86,66.22,21.26,115.07,34.43,141.25C903.54,964.43,987.71,1025.95,1013.8,1007.52Z"/><path class="cls-1" d="M1063.6,209.32C1056.4,184.61,1044,0,1044,0s-14.53,184.46-22,209.06c-8,26.13-48.53,68.71-48.75,109.77-.23,35.66,41.83,107.75,68.28,107.91s69.34-71.44,69.56-107.1C1111.32,278.59,1071.24,235.52,1063.6,209.32Z"/><path class="cls-1" d="M996.82,1046.54c-20.46-21.17-73.6-35-92-51.19-10.18-9-57.58-124.14-57.83-124.58l43.54,160.31h0c9.83,27.88,19.12,56.55,33.66,70.34,18.7,17.75,79.59,45.41,91.19,38.22C1030.65,1130.11,1012.5,1062.74,996.82,1046.54Z"/><path class="cls-1" d="M1094.25,1138.32c-1.87-17.25-36.23,2.78-60.5,21.24-21.58,16.41-56.46-14.95-60.65,3-5.46,23.38,17.17,51.37,43.33,61.21l-5.28,896.34s1.22,9.59,15.5,9.67,14.62-9.48,14.62-9.48l5.3-897.32C1069.2,1212.74,1097.26,1166.16,1094.25,1138.32Z"/><path class="cls-2" d="M1484,827.79c-13.41-16.55,50-130.08,76.24-150.53,41.87-32.28,133.13-44.73,151-65.21,8.94-10.21,50.85-78.85,90.07-145.24s75.93-130.46,75.93-130.48c.19.17-97.33,206.13-144.8,304.19-33,68.84-62.07,116.88-84.13,141.66C1622.12,811.82,1506.7,855.77,1484,827.79Z"/><path class="cls-2" d="M1378,1048.41c-11.57-17.8,51.86-126.54,79.82-144.44,44.77-28.14,136.82-32.06,156.55-50.86,9.9-9.36,65.41-77,117.87-142.72s102.08-129.46,102.08-129.46L1754.9,697.27c-43.26,64-94,139.39-122.17,186.25-39.44,65.71-68,114.48-92.43,137.13C1511.23,1047.85,1397.64,1078.63,1378,1048.41Z"/><path class="cls-2" d="M1287.19,1240.65c-3.37-8.08,10.39-40,28.63-71.6s41.21-62.74,57.76-68.54c40.76-14.21,114.41-7.56,132.85-20.16,9.21-6.27,47.38-39.22,83-70.89s68.73-61.95,68.73-61.95-82.86,91.56-141,160c-40.69,48-70.48,83.68-93.34,98.67-13.56,8.93-44.83,24.69-74.18,34.45S1292.86,1254.17,1287.19,1240.65Z"/><path class="cls-2" d="M1490.61,732.58c21.51-.36,65.61-107.45,63.3-140.64-3.47-52.72-40.61-113.11-38.74-152.25,2.27-41.19,52.75-236.71,52.51-236.7,0,0-46.31,122-87.2,221.34-28.63,69.66-47,111.34-50.89,143.85C1425,606.72,1454.84,733.17,1490.61,732.58Z"/><path class="cls-2" d="M1395.62,937c21.51-1.69,66.22-119.56,61.56-152.5-7.05-52.38-64-124.49-62.86-151.23.61-13.4,11.94-81.42,22.68-146.15L1438,361c.13,0-54.42,182-88.46,283.49-23.69,71.18-32.78,117.22-34.53,149.8C1313.12,832.92,1360,939.86,1395.62,937Z"/><path class="cls-2" d="M1307.47,1125c19.87-2.86,53.52-114.56,46.86-144.59-10.08-47.83-67.7-110.37-68.55-135-.39-24.69,16.59-222.55,16.29-222.58.05,0-24.08,134.32-48.05,229.93-16.72,67.05-30.59,115.73-30,145.75C1224.89,1034,1274.79,1129.68,1307.47,1125Z"/><path class="cls-2" d="M1699.61,391.24c3.5-26.53,66.61-208.46,66.34-208.59.23.2-88.52,171-106,191.28-18.33,21.72-74.57,45.58-91.8,84.49-14.9,33.81-5,119.9,20,131.19s96-39.11,111.05-73.2C1716.6,477.19,1696.15,419.44,1699.61,391.24Z"/><path class="cls-2" d="M1273.46,1153.08c-9-29.21-60.94-67.35-70.71-90.64-5.1-12.94-12.11-136.1-12.39-136.6q-7.85,81.36-17.21,162.27h0c-3.65,29.77.5,60.63,7.36,80,8.94,24.8,51.12,79.9,65.21,79.2C1264.61,1246.3,1280.57,1175.39,1273.46,1153.08Z"/><path class="cls-2" d="M1318.52,1285.2c7-17.07-34.57-15.15-66-10.49-27.83,4-44-41.79-56.72-27.75-8,8.59-11.36,23.71-9.32,38.43a73.6,73.6,0,0,0,18.89,40.08,925.16,925.16,0,0,0-64.79,176.92c-39.31,153.94-42.68,315.14-21.58,471.71,6.47,46.87,15,93.43,27,139.43,0,0,3.94,9.45,18.24,5.3,14.14-4.36,12.06-13.16,12-13.33-11.5-44.14-19.91-89.92-26.23-135.65-20.65-153.11-17.2-310.61,20.9-459.66a893.3,893.3,0,0,1,63-171.82c12.86.43,30.88-6.39,47.08-15.66a125.82,125.82,0,0,0,11.74-7.51,119.93,119.93,0,0,0,11-9.5C1310.46,1299.09,1315.69,1292.08,1318.52,1285.2Z"/><path class="cls-1" d="M1583.6,1336.88c-1.54-8.39,19.86-26.12,45.3-41.54s54.69-28.57,67.83-29.69c42-3.79,107.18,29.26,127.39,24.41,10.16-2.55,66.94-27.33,121.9-49.65,54.9-22.54,107.65-42.7,107.63-42.68s-39.25,18.84-87.35,43.7-104.68,55.76-140.59,76.64c-50.43,29.16-88.37,48.17-112.7,55.13-14.44,4.11-45.22,1.55-73.32-5S1586.18,1351,1583.6,1336.88Z"/><path class="cls-1" d="M1432.56,1457.79c-1.86-8.33,17.11-27.93,40.49-44.94s50.79-31.53,63.9-32.59c42-3.73,106.56,30.24,126.56,25.89,10-2.35,72.39-24.44,133.18-43.19,60.71-19,119.55-35.29,119.54-35.29s-45.45,15.54-99.46,37.06c-54.09,21.35-116.31,49.28-151.7,69.21-49.8,27.77-84.14,50.47-107.81,57.25-14.06,4-43.23,1.77-70.12-4S1435.67,1471.75,1432.56,1457.79Z"/><path class="cls-1" d="M1325.06,1583.49c-2.07-6.61,12-30,31.94-50.53,19.78-20.65,44.77-38.19,58.52-37.94,34.16.23,85.58,28.06,101.67,25.58,8.12-1.38,43.58-11.18,77.51-19.16,33.86-8.13,66-14.83,66-14.83,0-.2-85.74,27.56-142.48,56.07-40,19.63-67,36.37-85.84,41.15-11.21,2.8-36.18,6.6-59.27,8.62C1350.12,1594.25,1328.42,1594.57,1325.06,1583.49Z"/><path class="cls-1" d="M1626.26,1273.81c7.44,4.25,29.75-7.31,52.07-22.43s44.67-34,51.37-45.45c21.16-36.53,25.07-93.32,45.31-118.32,10.58-13.16,48.22-45.8,83.94-74.41s69.34-53.53,69.35-53.54c-.16-.08-93.41,54.46-168.65,101.84-52.88,33-84.79,53.58-102.57,74-10.57,12.16-25.1,43.19-33.22,73S1613.82,1266.71,1626.26,1273.81Z"/><path class="cls-1" d="M1480.86,1381.92c8,3,30.3-12.8,52.28-31.82s43.7-41.48,48.8-53.83c15.89-39.11,8.12-112.56,21.21-130.78,6.41-9.13,45.23-51.56,83.78-90.54s76.25-74.95,76.25-74.95-32,23.77-72.34,55.18-89,70.75-123.79,99.82c-48.84,40.69-75,71.21-89.8,94.4-8.83,13.82-15.37,44.67-15.55,73.14S1467.42,1376.94,1480.86,1381.92Z"/><path class="cls-1" d="M1359.64,1497.33c7.88,1,24.69-17.83,41.2-39.21s32.53-45.71,35.17-57.85c8-38.45-10.44-104.33-.95-123.3,4.6-9.44,30.55-49.52,56.75-86.19s52-70.38,52-70.39L1497,1171.48c-26.84,29.63-60.34,67.83-88.47,100.48-39.5,45.62-67.67,81.12-77.41,105.56-5.84,14.5-6.36,44.18-1,70.11S1346.45,1495.68,1359.64,1497.33Z"/><path class="cls-1" d="M1917.16,1143.58c7.38-7.63,43-32.32,77.41-54.4s67.27-41.6,67.2-41.5c.07-.11-35.39,14.33-73.11,30.27s-77.86,33.1-88.29,35.45c-22.08,4.88-69.82-6.54-99.65,11-26.08,15.11-59.05,76.64-47.24,95.27,11.7,18.45,80.16,17.87,105.16,3.39C1887.39,1206.13,1901.37,1159.76,1917.16,1143.58Z"/><path class="cls-1" d="M1327.12,1512.67c-1.22-24.68-32.43-65.64-33.21-87.21-.29-5.95,7.92-35.07,17.48-62.35s19.91-52.8,20-53c-24.92,42.37-48.39,86.21-68.93,132.32h0c-11.54,25.48-15.34,53.74-13.34,71.45,1.12,11.5,8.72,29.5,17.65,44.41s19.25,26.7,24.92,26.82c7.54.14,15.79-13.4,22.88-29.11S1327.53,1522.19,1327.12,1512.67Z"/><path class="cls-1" d="M1346.86,1620.36c6-11.58-26-15.54-51.24-13.11-11.15,1-19.6-7.61-26.4-15.45s-12.09-14.71-17.78-8.81c-15,15.52-10.34,47,5.69,63.76-22.7,45-38.94,93.39-46.82,143.27a463.49,463.49,0,0,0,11.3,195.74c10.2,36.67,24.27,72.26,43.59,105.41,0,.12,5.08,6.29,15.28.12,5.08-3,6.51-6.36,6.69-9a6,6,0,0,0-.47-3.87c-17.78-30.48-31.37-64.62-41-99.26a438.44,438.44,0,0,1-10.72-185.2c7.48-47.43,23-93.55,44.82-136.64,10.22.47,24.61-4.63,37.61-11.59S1342.12,1629.77,1346.86,1620.36Z"/><path class="cls-1" d="M1138.9,1334.49q6.56-36.38,13.53-72.71c3.65-19.17,9.86-38.24,9.78-57.94-.06-10.11-1.13-27.51-8.08-35.4-11-12.43-18.95,5.8-21.22,15.1-4.62,18.82-6.44,39.17-9.89,58.3-5.26,29.25-9.84,58.63-15.11,87.89-19,106.1-36.3,212.86-44.14,320.83-4,53.92-5.24,108.19-4.62,162.11q.53,80.89,3.25,161.76c1.66,47.08,3.82,94.12,7.12,141.2,0,0,2.06,9.93,16.88,8.68s14.37-10.91,14.37-10.93c-3.26-46.43-5.42-93.26-7.05-140q-2.78-80.48-3.24-161.09c-.6-53.71.64-106.64,4.56-159.84C1102.78,1546.2,1119.89,1440.28,1138.9,1334.49Z"/><path class="cls-2" d="M1244.92,1558a30.45,30.45,0,0,0-.23-23.28c-9.66-24.11-18.53-3.14-25.6,9.68A470.28,470.28,0,0,0,1169,1682.95c-18.26,96.56-15.69,196.39,4.45,292.22,9.21,43.35,21.6,86,38.88,127.1,0,0,5,8.22,17.58,2.38,12.38-6.1,9.32-13.73,9.28-13.88-16.21-38.56-28.33-80-37.15-121.62-19.43-92.38-21.81-188.7-4.28-281a437.83,437.83,0,0,1,20-71.18q6.65-17.83,14.86-35C1236.8,1573.21,1242,1565.81,1244.92,1558Z"/><path class="cls-2" d="M580.29,822.45c13.61-16.38-48.51-130.66-74.48-151.4-41.48-32.78-132.6-46.31-150.23-67-8.81-10.31-49.92-79.45-88.36-146.28s-74.38-131.36-74.38-131.36c-.19.14,94.9,207.25,141.2,305.87,32.24,69.23,60.69,117.6,82.46,142.64C442.39,804.86,557.29,850.16,580.29,822.45Z"/><path class="cls-2" d="M683.75,1044.31c11.78-17.67-50.35-127.13-78.12-145.38-44.43-28.67-136.41-33.66-155.93-52.69-9.77-9.47-64.5-77.72-116.17-144.09S233,571.49,233,571.49l78,117.27c42.53,64.47,92.33,140.48,120,187.67,38.66,66.17,66.61,115.28,90.81,138.22C550.48,1042.19,663.7,1074.31,683.75,1044.31Z"/><path class="cls-2" d="M772.24,1237.61c3.47-8-9.9-40.15-27.77-71.93s-40.48-63.22-56.95-69.21c-40.6-14.69-114.34-8.9-132.62-21.72-9.14-6.38-46.91-39.78-82.14-71.87s-68-62.75-68-62.75,81.78,92.52,139.17,161.6c40.12,48.49,69.47,84.5,92.15,99.78,13.48,9.08,44.55,25.21,73.78,35.31S766.41,1251.08,772.24,1237.61Z"/><path class="cls-2" d="M574.83,727.19c-21.5-.62-64.34-108.22-61.64-141.38,4.1-52.68,42-112.63,40.55-151.79-1.79-41.21-50-237.32-49.72-237.31,0,0,44.86,122.54,84.58,222.36,27.81,70,45.64,111.9,49.19,144.44C641.88,602.1,610.6,728.19,574.83,727.19Z"/><path class="cls-2" d="M667.4,932.74c-21.49-1.94-64.8-120.33-59.75-153.21,7.67-52.3,65.49-123.73,64.64-150.49-.46-13.4-11-81.55-21-146.4L631.77,356.29c-.13,0,52.28,182.65,85.12,284.51,22.84,71.45,31.39,117.59,32.76,150.2C751.12,829.61,703,936,667.4,932.74Z"/><path class="cls-2" d="M753.34,1121.72c-19.85-3.07-52.16-115.16-45.17-145.13,10.66-47.7,69-109.56,70.15-134.22.67-24.68-14-222.73-13.67-222.75-.06,0,22.49,134.59,45.34,230.48,15.9,67.25,29.22,116.08,28.31,146.1C837,1031.68,786,1126.79,753.34,1121.72Z"/><path class="cls-2" d="M369.88,383.4C366.68,356.82,305.73,174.17,306,174c-.23.19,86.5,172,103.76,192.5,18.06,21.92,74,46.45,90.79,85.57,14.49,34,3.59,119.94-21.58,130.95s-95.56-40.24-110.19-74.5C351.86,469.15,373,411.64,369.88,383.4Z"/><path class="cls-2" d="M787,1150.21c9.33-29.11,61.73-66.63,71.77-89.81,5.26-12.87-1.61-98.62-1.61-98.62s25.23,70.68,30.9,124.65h0c3.3,29.8-1.22,60.62-8.29,80-9.24,24.7-52.06,79.31-66.13,78.42C794.75,1243.54,779.64,1172.44,787,1150.21Z"/><path class="cls-2" d="M740.39,1281.8c-6.78-17.17,34.76-14.74,66.09-9.73,27.79,4.34,44.49-41.25,57-27.07,7.92,8.68,11.08,23.85,8.86,38.53A73.49,73.49,0,0,1,853,1323.38a925.2,925.2,0,0,1,62.69,177.68c37.5,154.39,39,315.63,16,471.92-7,46.8-16.11,93.24-28.63,139.11,0,0-4.06,9.4-18.31,5.09-14.1-4.54-11.92-13.32-11.88-13.48,12-44,21-89.68,27.84-135.33,22.45-152.85,20.86-310.37-15.49-459.87a894,894,0,0,0-61-172.55c-12.88.28-30.82-6.76-46.9-16.21a125.43,125.43,0,0,1-11.66-7.66,115.12,115.12,0,0,1-10.86-9.64C748.29,1295.78,743.15,1288.71,740.39,1281.8Z"/><path class="cls-1" d="M474.72,1330.35c1.65-8.37-19.56-26.37-44.82-42.08s-54.34-29.21-67.47-30.48c-42-4.28-107.51,28-127.67,22.89-10.12-2.65-66.61-28.1-121.3-51.07-54.63-23.18-107.14-44-107.12-43.94s39,19.3,86.81,44.73,104,57,139.68,78.28c50.08,29.75,87.79,49.2,112.05,56.45,14.39,4.29,45.19,2.07,73.35-4.12S472,1344.41,474.72,1330.35Z"/><path class="cls-1" d="M624.31,1453c2-8.31-16.76-28.14-39.94-45.41s-50.41-32.14-63.5-33.36c-42-4.22-106.91,29-126.84,24.41-10-2.47-72.09-25.29-132.68-44.75-60.48-19.74-119.11-36.7-119.11-36.7s45.27,16.08,99,38.22c53.85,22,115.72,50.65,150.87,71,49.47,28.36,83.54,51.46,107.13,58.52,14,4.16,43.21,2.28,70.17-3.18S621.05,1466.94,624.31,1453Z"/><path class="cls-1" d="M730.33,1580c2.16-6.58-11.61-30.11-31.33-50.89-19.54-20.88-44.3-38.72-58.05-38.64-34.16-.16-85.92,27.07-102,24.39-8.1-1.46-43.44-11.69-77.27-20.07s-65.87-15.61-65.84-15.62c0-.19,85.4,28.57,141.81,57.76,39.78,20.1,66.61,37.15,85.35,42.16,11.17,2.93,36.1,7,59.14,9.31C705.15,1590.45,726.86,1591,730.33,1580Z"/><path class="cls-1" d="M432.8,1266.77c-7.48,4.16-29.65-7.65-51.79-23s-44.28-34.48-50.85-46c-20.73-36.78-24-93.61-43.92-118.85-10.41-13.28-47.66-46.36-83-75.41s-68.71-54.34-68.73-54.34c.19-.08,92.77,55.56,167.44,103.82,52.49,33.66,84.17,54.59,101.69,75.25,10.43,12.29,24.59,43.48,32.37,73.35S445.33,1259.82,432.8,1266.77Z"/><path class="cls-1" d="M576.91,1376.59c-8.06,2.86-30.14-13.16-51.91-32.43s-43.19-42-48.15-54.4c-15.43-39.29-6.79-112.64-19.66-131-6.31-9.19-44.63-52.09-82.72-91.52s-75.38-75.83-75.38-75.83,31.71,24.14,71.7,56,88.17,71.78,122.62,101.26c48.34,41.27,74.11,72.09,88.67,95.46,8.68,13.91,14.84,44.85,14.7,73.3S590.43,1371.77,576.91,1376.59Z"/><path class="cls-1" d="M696.78,1493.41c-7.89.88-24.48-18.11-40.74-39.68s-32-46.1-34.5-58.26c-7.57-38.53,11.69-104.21,2.41-123.28-4.47-9.5-30-49.87-55.72-86.85s-51.15-71-51.15-71L563.21,1166c26.5,29.94,59.54,68.54,87.27,101.52,39,46.08,66.71,81.9,76.17,106.46,5.67,14.58,5.83,44.24.12,70.12S710,1491.93,696.78,1493.41Z"/><path class="cls-1" d="M143.46,1133.11c-7.28-7.72-42.67-32.83-76.75-55.3S-.06,1035.41,0,1035.51c-.07-.1,35.21,14.76,72.75,31.14s77.47,34,87.87,36.5c22,5.12,69.89-5.73,99.51,12.15,25.9,15.42,58.14,77.34,46.12,95.83-11.91,18.31-80.36,16.92-105.19,2.14C172.49,1196,159.06,1149.49,143.46,1133.11Z"/><path class="cls-1" d="M729.11,1509.14c1.5-24.66,33.19-65.27,34.24-86.81.36-5.94-7.5-35.16-16.74-62.57s-19.3-53-19.38-53.23c24.43,42.67,47.39,86.78,67.37,133.13v0c11.24,25.62,14.72,53.92,12.49,71.62-1.26,11.48-9,29.38-18.16,44.18s-19.58,26.47-25.24,26.53c-7.54.05-15.64-13.59-22.54-29.38S728.6,1518.67,729.11,1509.14Z"/><path class="cls-1" d="M708.11,1616.6c-5.85-11.66,26.21-15.22,51.39-12.5,11.15,1.15,19.69-7.38,26.57-15.14s12.27-14.57,17.89-8.61c14.84,15.71,9.77,47.08-6.45,63.7,22.16,45.22,37.83,93.82,45.13,143.81,9.63,65.18,4.66,132.37-13.61,195.59-10.63,36.56-25.12,72-44.83,104.88,0,.13-5.16,6.25-15.28,0-5.05-3.09-6.44-6.44-6.58-9.11a6,6,0,0,1,.51-3.85C781,2045.05,795,2011.08,805,1976.54a438.51,438.51,0,0,0,12.9-185.06C811,1744,796,1697.67,774.69,1654.33c-10.23.34-24.55-4.93-37.48-12S712.73,1626.06,708.11,1616.6Z"/><path class="cls-2" d="M919.41,1333.2q-6.12-36.47-12.67-72.86c-3.42-19.21-9.41-38.36-9.1-58.05.19-10.12,1.45-27.5,8.49-35.3,11.11-12.3,18.88,6,21.06,15.35,4.38,18.88,6,39.23,9.18,58.42,4.91,29.31,9.15,58.73,14.08,88,17.79,106.31,33.79,213.28,40.34,321.35,3.34,54,4,108.23,2.7,162.14Q992,1893.18,988.36,1974c-2.22,47.06-4.93,94.08-8.79,141.11,0,0-2.17,9.91-17,8.48s-14.23-11.07-14.23-11.09c3.79-46.39,6.51-93.19,8.7-139.95q3.71-80.43,5.13-161c1.24-53.7.62-106.64-2.68-159.88C953,1545.31,937.18,1439.2,919.41,1333.2Z"/><path class="cls-1" d="M810.77,1555.44a30.47,30.47,0,0,1,.5-23.28c9.94-24,18.56-2.92,25.49,10a470,470,0,0,1,48.48,139.13c17.13,96.77,13.36,196.56-7.89,292.15-9.73,43.23-22.62,85.71-40.4,126.63,0,0-5.06,8.17-17.6,2.16-12.31-6.25-9.15-13.83-9.11-14,16.68-38.37,29.27-79.66,38.59-121.17,20.51-92.15,24-188.42,7.59-280.92a438.78,438.78,0,0,0-19.21-71.43q-6.43-17.9-14.44-35.21C818.71,1570.74,813.57,1563.29,810.77,1555.44Z"/><path class="cls-3" d="M1026.63,1858.67c-175.34-1-220.21-44.17-224.75-49.08-6.93-7.49-8.3-21.7-3.07-31.73s14.8-12,21.71-4.89c1.48,1.36,44.59,39.41,206.38,40.37,159.42.94,205.84-38.14,206.3-38.53,7.34-6.43,17-3.31,21.53,7.14s2.55,24.18-4.64,31C1245,1817.71,1195.7,1859.67,1026.63,1858.67Z"/><path class="cls-3" d="M1026.24,1924.64c-175.33-1-220.21-44.17-224.75-49.08-6.93-7.49-8.29-21.71-3.07-31.73s14.8-12,21.71-4.9c1.48,1.37,44.59,39.41,206.38,40.36,159.42.94,205.84-38.13,206.29-38.52,7.34-6.44,17-3.32,21.53,7.13s2.55,24.18-4.64,31C1244.63,1883.68,1195.3,1925.63,1026.24,1924.64Z"/></g></g></svg>