<svg xmlns="http://www.w3.org/2000/svg" width="284.361" height="325.259" viewBox="0 0 284.361 325.259">
  <g id="mission" transform="matrix(0.921, 0.391, -0.391, 0.921, 110.622, -11.097)">
    <path id="Path_348" data-name="Path 348" d="M169.589,22.439a24.294,24.294,0,0,0,6.943.75,20.935,20.935,0,0,0,8.981-2.526,20.136,20.136,0,0,0,6.927-6.243,24.449,24.449,0,0,0,4.14-11.246A24.437,24.437,0,0,0,184.845.762,20.431,20.431,0,0,0,175.88,3.3,21.237,21.237,0,0,0,168.953,9.6a23.76,23.76,0,0,0-3.472,7.677C38.642,109.15,3.061,268.8,2.719,270.413L9.19,271.8C9.532,270.185,44.608,112.8,169.589,22.439Z" transform="translate(-2.719 11.316)" fill="#fff"/>
    <path id="Path_349" data-name="Path 349" d="M16.277,28.344A24.773,24.773,0,0,0,26.3,34.9a24.7,24.7,0,0,0,4.955-10.9,21.432,21.432,0,0,0-.473-9.323,21.173,21.173,0,0,0-4.564-8.133A24.4,24.4,0,0,0,16.163,0a24.725,24.725,0,0,0-4.971,10.9,20.517,20.517,0,0,0,5.085,17.44Z" transform="translate(122.249)" fill="#fff"/>
    <path id="Path_350" data-name="Path 350" d="M40.6,6.451a20.272,20.272,0,0,0-8.59-3.618,20.5,20.5,0,0,0-9.307.6A24.621,24.621,0,0,0,12.455,9.6a24.538,24.538,0,0,0,7.661,9.193,20.638,20.638,0,0,0,8.59,3.635,20.554,20.554,0,0,0,9.274-.554,24.411,24.411,0,0,0,10.268-6.194A24.375,24.375,0,0,0,40.6,6.451Z" transform="translate(146.233 39.04)" fill="#fff"/>
    <path id="Path_351" data-name="Path 351" d="M39.051,7.767a20.176,20.176,0,0,0-8.573-3.6,20.658,20.658,0,0,0-9.339.6A25.033,25.033,0,0,0,10.9,10.929a24.588,24.588,0,0,0,7.661,9.209,20.853,20.853,0,0,0,8.59,3.635,20.174,20.174,0,0,0,9.29-.57,24.354,24.354,0,0,0,10.268-6.177A24.258,24.258,0,0,0,39.051,7.767Z" transform="translate(122.473 59.418)" fill="#fff"/>
    <path id="Path_352" data-name="Path 352" d="M37.529,9.218A20.936,20.936,0,0,0,28.956,5.6a21.024,21.024,0,0,0-9.323.619A24.873,24.873,0,0,0,9.381,12.38a24.368,24.368,0,0,0,7.644,9.193,20.727,20.727,0,0,0,8.59,3.635,20.625,20.625,0,0,0,9.29-.57,24.338,24.338,0,0,0,10.268-6.194A24.375,24.375,0,0,0,37.529,9.218Z" transform="translate(99.203 81.666)" fill="#fff"/>
    <path id="Path_353" data-name="Path 353" d="M36.29,11.091a20.274,20.274,0,0,0-8.59-3.6,20.491,20.491,0,0,0-9.307.587A24.974,24.974,0,0,0,8.141,14.237a24.629,24.629,0,0,0,7.644,9.193,21.266,21.266,0,0,0,8.606,3.651,20.1,20.1,0,0,0,9.274-.587,24.255,24.255,0,0,0,10.3-6.194A24.628,24.628,0,0,0,36.29,11.091Z" transform="translate(80.233 110.158)" fill="#fff"/>
    <path id="Path_354" data-name="Path 354" d="M34.981,13.062a20.516,20.516,0,0,0-8.59-3.618,21.041,21.041,0,0,0-9.323.587A24.83,24.83,0,0,0,6.832,16.191,24.717,24.717,0,0,0,14.476,25.4a21.2,21.2,0,0,0,8.59,3.651,20.623,20.623,0,0,0,9.29-.587A24.3,24.3,0,0,0,42.625,22.3,24.026,24.026,0,0,0,34.981,13.062Z" transform="translate(60.206 140.28)" fill="#fff"/>
    <path id="Path_355" data-name="Path 355" d="M33.639,15.394a20.479,20.479,0,0,0-8.59-3.618,20.791,20.791,0,0,0-9.323.6A24.6,24.6,0,0,0,5.474,18.54a24.318,24.318,0,0,0,7.644,9.176,21.108,21.108,0,0,0,8.59,3.667,20.929,20.929,0,0,0,9.307-.57A24.161,24.161,0,0,0,41.267,24.6,24,24,0,0,0,33.639,15.394Z" transform="translate(39.43 175.973)" fill="#fff"/>
    <path id="Path_356" data-name="Path 356" d="M13.975,31.2A24.683,24.683,0,0,0,24.5,36.936a24.563,24.563,0,0,0,4.107-11.263,20.03,20.03,0,0,0-1.255-9.225,20.61,20.61,0,0,0-5.216-7.742A24.547,24.547,0,0,0,11.628,2.952,24.728,24.728,0,0,0,7.554,14.2a21.143,21.143,0,0,0,1.239,9.258A20.33,20.33,0,0,0,13.975,31.2Z" transform="translate(70.03 45.163)" fill="#fff"/>
    <path id="Path_357" data-name="Path 357" d="M12.445,33.178A24.333,24.333,0,0,0,22.974,38.9a24.033,24.033,0,0,0,4.091-11.246,20.127,20.127,0,0,0-1.222-9.242A20.251,20.251,0,0,0,20.627,10.7a24.4,24.4,0,0,0-10.5-5.754A24.045,24.045,0,0,0,6.056,16.194a20.61,20.61,0,0,0,1.206,9.258A20.276,20.276,0,0,0,12.445,33.178Z" transform="translate(46.949 75.7)" fill="#fff"/>
    <path id="Path_358" data-name="Path 358" d="M12.589,35.013a24.056,24.056,0,0,0,11.067,4.629,24.25,24.25,0,0,0,2.918-11.621,20.414,20.414,0,0,0-2.168-9.062,20.742,20.742,0,0,0-6-7.155A24.256,24.256,0,0,0,7.389,7.174a24.11,24.11,0,0,0-2.9,11.6,20.271,20.271,0,0,0,8.1,16.234Z" transform="translate(24.345 109.756)" fill="#fff"/>
    <path id="Path_359" data-name="Path 359" d="M11.231,37.432A24.309,24.309,0,0,0,22.3,42.061,24.1,24.1,0,0,0,25.216,30.44a20.311,20.311,0,0,0-2.151-9.079,20.82,20.82,0,0,0-5.982-7.139A24.607,24.607,0,0,0,6.048,9.577a24.469,24.469,0,0,0-2.9,11.6,20.934,20.934,0,0,0,2.135,9.095A19.958,19.958,0,0,0,11.231,37.432Z" transform="translate(3.829 146.519)" fill="#fff"/>
    <path id="Path_360" data-name="Path 360" d="M13.8,29.5a24.263,24.263,0,0,0,9.649,7.123A24.474,24.474,0,0,0,29.07,26.04a20.247,20.247,0,0,0,.033-9.323,20.648,20.648,0,0,0-4.091-8.394A24.554,24.554,0,0,0,15.4,1.2,24.358,24.358,0,0,0,9.821,11.794a20.725,20.725,0,0,0-.081,9.323A20.116,20.116,0,0,0,13.8,29.5Z" transform="translate(97.166 18.359)" fill="#fff"/>
  </g>
</svg>
