<svg xmlns="http://www.w3.org/2000/svg" width="38.204" height="38.142" viewBox="0 0 38.204 38.142">
  <g id="team" transform="translate(0 -0.1)">
    <circle id="Ellipse_6" data-name="Ellipse 6" cx="3.767" cy="3.767" r="3.767" transform="translate(2.304 0.1)" fill="#1b2326"/>
    <path id="Path_309" data-name="Path 309" d="M1.868,40.6h.374v7.473A1.873,1.873,0,0,0,4.11,49.941H8.033A1.873,1.873,0,0,0,9.9,48.073v-.436a4.723,4.723,0,0,1-.56-2.18V35.681a4.66,4.66,0,0,1,2.8-4.266v-.747A1.874,1.874,0,0,0,10.275,28.8H1.868A1.874,1.874,0,0,0,0,30.668v8.064A1.854,1.854,0,0,0,1.868,40.6Z" transform="translate(0 -19.764)" fill="#1b2326"/>
    <circle id="Ellipse_7" data-name="Ellipse 7" cx="3.767" cy="3.767" r="3.767" transform="translate(28.396 0.1)" fill="#1b2326"/>
    <path id="Path_310" data-name="Path 310" d="M83.7,30.568v.747a4.659,4.659,0,0,1,2.8,4.266v9.746a4.373,4.373,0,0,1-.56,2.18v.436a1.873,1.873,0,0,0,1.868,1.868h3.923A1.874,1.874,0,0,0,93.6,47.942V40.47h.373A1.873,1.873,0,0,0,95.842,38.6V30.568A1.873,1.873,0,0,0,93.974,28.7H85.567A1.874,1.874,0,0,0,83.7,30.568Z" transform="translate(-57.638 -19.695)" fill="#1b2326"/>
    <path id="Path_311" data-name="Path 311" d="M39.1,46.768h0v9.777a1.874,1.874,0,0,0,1.868,1.868h.716v8.812a1.874,1.874,0,0,0,1.868,1.868h5.013a1.874,1.874,0,0,0,1.868-1.868V58.382h.716a1.873,1.873,0,0,0,1.868-1.868V46.768h0A1.874,1.874,0,0,0,51.15,44.9H40.968A1.854,1.854,0,0,0,39.1,46.768Z" transform="translate(-26.926 -30.851)" fill="#1b2326"/>
    <circle id="Ellipse_8" data-name="Ellipse 8" cx="4.328" cy="4.328" r="4.328" transform="translate(14.79 3.836)" fill="#1b2326"/>
  </g>
</svg>
